<?xml version="1.0" encoding="UTF-8" standalone="no"?>
<svg
   xmlns:dc="http://purl.org/dc/elements/1.1/"
   xmlns:cc="http://creativecommons.org/ns#"
   xmlns:rdf="http://www.w3.org/1999/02/22-rdf-syntax-ns#"
   xmlns:svg="http://www.w3.org/2000/svg"
   xmlns="http://www.w3.org/2000/svg"
   xmlns:xlink="http://www.w3.org/1999/xlink"
   xmlns:sodipodi="http://sodipodi.sourceforge.net/DTD/sodipodi-0.dtd"
   xmlns:inkscape="http://www.inkscape.org/namespaces/inkscape"
   width="48"
   height="48"
   version="1.1"
   id="svg52"
   sodipodi:docname="pipeline-apply.svg"
   inkscape:version="0.92.3 (2405546, 2018-03-11)"
   inkscape:export-filename="/home/luca/Dropbox/MATLAB scripts/Clarinet/Clarinet_resources/pipeline-apply.png"
   inkscape:export-xdpi="96"
   inkscape:export-ydpi="96">
  <metadata
     id="metadata56">
    <rdf:RDF>
      <cc:Work
         rdf:about="">
        <dc:format>image/svg+xml</dc:format>
        <dc:type
           rdf:resource="http://purl.org/dc/dcmitype/StillImage" />
      </cc:Work>
    </rdf:RDF>
  </metadata>
  <sodipodi:namedview
     pagecolor="#ffffff"
     bordercolor="#666666"
     borderopacity="1"
     objecttolerance="10"
     gridtolerance="10"
     guidetolerance="10"
     inkscape:pageopacity="0"
     inkscape:pageshadow="2"
     inkscape:window-width="1853"
     inkscape:window-height="1016"
     id="namedview54"
     showgrid="false"
     inkscape:zoom="4.9166667"
     inkscape:cx="-13.118644"
     inkscape:cy="24"
     inkscape:window-x="67"
     inkscape:window-y="27"
     inkscape:window-maximized="1"
     inkscape:current-layer="svg52" />
  <defs
     id="defs32">
    <radialGradient
       id="b"
       cx="20.656"
       cy="24.735"
       r="14.152"
       gradientTransform="translate(1.972 9.22)"
       gradientUnits="userSpaceOnUse">
      <stop
         offset="0"
         stop-color="#767676"
         id="stop2" />
      <stop
         offset="1"
         stop-color="#484848"
         id="stop4" />
    </radialGradient>
    <linearGradient
       id="d"
       x1="21.032"
       x2="21.108"
       y1="31.868"
       y2="-4.599"
       gradientTransform="matrix(.95053 0 0 .9375 1.451 3.32)"
       gradientUnits="userSpaceOnUse">
      <stop
         offset="0"
         stop-color="#fff"
         id="stop7" />
      <stop
         offset="1"
         stop-color="#fff"
         stop-opacity="0"
         id="stop9" />
    </linearGradient>
    <linearGradient
       id="e"
       x1="46.545"
       x2="40.82"
       y1="35.245"
       y2="34.14"
       gradientTransform="translate(5.318 5.943) scale(.88488)"
       gradientUnits="userSpaceOnUse">
      <stop
         offset="0"
         stop-color="#888a85"
         id="stop12" />
      <stop
         offset="1"
         stop-color="#888a85"
         stop-opacity="0"
         id="stop14" />
    </linearGradient>
    <radialGradient
       id="a"
       cx="23.158"
       cy="26.964"
       r="21.567"
       gradientTransform="matrix(1 0 0 .66393 1.237 9.824)"
       gradientUnits="userSpaceOnUse">
      <stop
         offset="0"
         id="stop17" />
      <stop
         offset="1"
         stop-opacity="0"
         id="stop19" />
    </radialGradient>
    <linearGradient
       id="c"
       x1="23.816"
       x2="29.049"
       y1="12.75"
       y2="25.772"
       gradientTransform="matrix(.76097 0 0 .98666 2.905 .584)"
       gradientUnits="userSpaceOnUse">
      <stop
         offset="0"
         stop-color="#888a85"
         id="stop22" />
      <stop
         offset="1"
         stop-color="#b8b9b6"
         id="stop24" />
    </linearGradient>
    <linearGradient
       id="f"
       x1="43.688"
       x2="26.625"
       y1="32.133"
       y2="32.133"
       gradientTransform="translate(0 2)"
       gradientUnits="userSpaceOnUse">
      <stop
         offset="0"
         stop-color="#fff"
         id="stop27" />
      <stop
         offset="1"
         stop-color="#fff"
         stop-opacity="0"
         id="stop29" />
    </linearGradient>
    <linearGradient
       id="b-6">
      <stop
         id="stop111"
         stop-color="#73d216"
         offset="0" />
      <stop
         id="stop113"
         stop-color="#4e9a06"
         offset="1" />
    </linearGradient>
    <linearGradient
       id="c-2">
      <stop
         id="stop116"
         offset="0" />
      <stop
         id="stop118"
         stop-opacity="0"
         offset="1" />
    </linearGradient>
    <linearGradient
       id="a-9">
      <stop
         id="stop121"
         stop-color="#fff"
         offset="0" />
      <stop
         id="stop123"
         stop-opacity="0"
         stop-color="#fff"
         offset="1" />
    </linearGradient>
    <radialGradient
       xlink:href="#a-9"
       gradientUnits="userSpaceOnUse"
       gradientTransform="matrix(0,-2.04673,1.55761,0,2.767,66.933)"
       fy=".4"
       fx="24.538"
       r="17.171"
       cy=".4"
       cx="24.538"
       id="f-1" />
    <radialGradient
       xlink:href="#b-6"
       gradientUnits="userSpaceOnUse"
       gradientTransform="matrix(0,-0.84302,1.02017,0,0.606,42.586)"
       fy="22.455"
       fx="11.319"
       r="16.956"
       cy="22.455"
       cx="11.319"
       id="e-2" />
    <radialGradient
       xlink:href="#c-2"
       gradientUnits="userSpaceOnUse"
       gradientTransform="matrix(1 0 0 .53672 0 16.873)"
       fy="36.421"
       fx="24.837"
       r="15.645"
       cy="36.421"
       cx="24.837"
       id="d-7" />
  </defs>
  <ellipse
     cx="24.395"
     cy="27.726"
     fill="url(#a)"
     opacity=".703"
     rx="21.567"
     ry="14.319"
     id="ellipse34" />
  <ellipse
     cx="22.5"
     cy="26.101"
     fill="#a1a39f"
     stroke="#6d6f6a"
     rx="18.5"
     ry="12.721"
     id="ellipse36" />
  <ellipse
     cx="21.984"
     cy="23.581"
     fill="#555753"
     rx="11.269"
     ry="8.265"
     id="ellipse38" />
  <path
     fill="url(#b)"
     stroke="#3b3d39"
     d="M32.37 37.959c-5.683.502-15.177.838-18.898-5.039 15.798 4.764 23.087-3.146 33.779 1.31l-1.225 6.997S37.702 37.49 32.37 37.96z"
     id="path40" />
  <ellipse
     cx="22.5"
     cy="21.304"
     fill="url(#c)"
     stroke="#757972"
     stroke-width="1.069"
     rx="11.224"
     ry="8.14"
     id="ellipse42" />
  <path
     fill="#d3d7cf"
     fill-rule="evenodd"
     stroke="#888a85"
     d="M21.094 7.719c-5.803.266-11.836 2.712-15.246 7.626-2.401 3.461-2.42 8.297-.023 11.766 3.448 4.99 9.611 7.37 15.487 7.643 6.195.286 12.84-1.684 17.008-6.493 2.737-3.158 3.53-7.913 1.557-11.66-2.654-5.037-8.215-7.78-13.65-8.607a26.148 26.148 0 0 0-5.133-.275zm-1.375 2.187c2.279-.123 5.229.745 5.814 3.208.514 2.161-1.739 3.77-3.65 4.156-2.432.49-5.725-.115-6.685-2.643-1.027-2.701 2.2-4.595 4.521-4.72zm11.5 4.594c2.381-.166 5.38.726 6.167 3.221.676 2.145-1.405 3.97-3.323 4.497-2.61.717-6.034.204-7.471-2.308-1.022-1.787.347-3.885 2.036-4.675.819-.383 1.69-.672 2.59-.735zM12 17.656c2.444-.166 5.542.724 6.351 3.292.695 2.205-1.44 4.089-3.413 4.634-2.685.743-6.209.207-7.68-2.38-1.042-1.83.327-4 2.071-4.808.844-.39 1.745-.675 2.671-.738zm11.531 5.125c2.652-.215 5.88.596 7.118 3.2.984 2.073-.635 4.315-2.539 5.17-3.052 1.373-7.255.99-9.352-1.818-1.297-1.735-.406-4.184 1.31-5.286 1.046-.673 2.228-1.166 3.463-1.266z"
     id="path44" />
  <ellipse
     cx="22.539"
     cy="21.141"
     fill="none"
     stroke="url(#d)"
     rx="17.559"
     ry="12.595"
     id="ellipse46" />
  <path
     fill="url(#e)"
     d="M46.875 34.494l-1.082 6.05c-2.609-.876-4.182-1.568-7.07-2.257l.331-4.913c1.899-.2 4.864.142 7.821 1.12z"
     id="path48" />
  <path
     fill="url(#f)"
     d="M46.875 34.312l-.188.875c-8.104-3.029-15.565-.227-23.374 0 10.61-.883 14.09-3.716 23.562-.875z"
     opacity=".703"
     id="path50" />
  <g
     id="g139"
     style="color:#000000"
     transform="matrix(0.63992266,0,0,0.63992266,21.5342,-2.8367616)">
    <path
       id="path133"
       style="fill:url(#e-2);fill-rule:evenodd;stroke:#3a7304;stroke-linecap:round;stroke-linejoin:round;stroke-miterlimit:10;marker:none"
       d="M 14.491792,38.5 H 32.469477 V 25.547437 H 40.5 L 23.374809,5.4992135 6.5285585,25.489471 l 7.9685375,0.06629 z"
       stroke-miterlimit="10"
       inkscape:connector-curvature="0" />
    <path
       id="path135"
       style="opacity:0.50800003;fill:url(#f-1);fill-rule:evenodd;marker:none"
       d="m 7.5855237,25.03253 h 7.4102973 l 0.0666,6.561809 c 5.655612,-11.000461 15.993095,-8.844411 16.594346,-15.627665 0,0 -8.28983,-9.5447048 -8.28983,-9.5447048 z"
       inkscape:connector-curvature="0" />
    <path
       id="path137"
       style="opacity:0.481;fill:none;stroke:#ffffff;stroke-miterlimit:10;marker:none"
       d="M 15.602735,37.5 H 31.502578 V 24.50705 h 6.808998 L 23.361206,7.0700896 8.6546798,24.55047 15.475049,24.52837 Z"
       stroke-miterlimit="10"
       inkscape:connector-curvature="0" />
  </g>
</svg>
