<?xml version="1.0" encoding="UTF-8" standalone="no"?>
<!-- Generator: Adobe Illustrator 19.0.0, SVG Export Plug-In . SVG Version: 6.00 Build 0)  -->

<svg
   xmlns:dc="http://purl.org/dc/elements/1.1/"
   xmlns:cc="http://creativecommons.org/ns#"
   xmlns:rdf="http://www.w3.org/1999/02/22-rdf-syntax-ns#"
   xmlns:svg="http://www.w3.org/2000/svg"
   xmlns="http://www.w3.org/2000/svg"
   xmlns:sodipodi="http://sodipodi.sourceforge.net/DTD/sodipodi-0.dtd"
   xmlns:inkscape="http://www.inkscape.org/namespaces/inkscape"
   version="1.1"
   id="Layer_1"
   x="0px"
   y="0px"
   viewBox="0 0 48 48"
   xml:space="preserve"
   sodipodi:docname="Split.svg"
   width="48"
   height="48"
   inkscape:version="0.92.3 (2405546, 2018-03-11)"
   inkscape:export-filename="/home/luca/Dropbox/MATLAB scripts/Clarinet/Clarinet_resources/48px-EpochGroup-add.png"
   inkscape:export-xdpi="96"
   inkscape:export-ydpi="96"><metadata
   id="metadata11"><rdf:RDF><cc:Work
       rdf:about=""><dc:format>image/svg+xml</dc:format><dc:type
         rdf:resource="http://purl.org/dc/dcmitype/StillImage" /><dc:title /></cc:Work></rdf:RDF></metadata><defs
   id="defs9" /><sodipodi:namedview
   pagecolor="#ffffff"
   bordercolor="#666666"
   borderopacity="1"
   objecttolerance="10"
   gridtolerance="10"
   guidetolerance="10"
   inkscape:pageopacity="0"
   inkscape:pageshadow="2"
   inkscape:window-width="1853"
   inkscape:window-height="1016"
   id="namedview7"
   showgrid="false"
   fit-margin-top="0"
   fit-margin-left="0"
   fit-margin-right="0"
   fit-margin-bottom="0"
   inkscape:zoom="13.906433"
   inkscape:cx="25.683946"
   inkscape:cy="11.115959"
   inkscape:window-x="67"
   inkscape:window-y="27"
   inkscape:window-maximized="1"
   inkscape:current-layer="g6" />
<style
   type="text/css"
   id="style2">
	.st0{fill:#333333;}
</style>
<g
   id="XMLID_2_"
   transform="matrix(0.86331857,0,0,0.86331857,-17.412014,-16.606748)">
	<path
   style="fill:#ce5c00"
   d="m 37.5,48 c -3.1,0.1 -5.6,1.3 -7.6,3.7 h -3.8 c -1.6,0 -2.9,-0.4 -4,-1.2 -1.1,-0.8 -1.6,-1.9 -1.6,-3.4 0,-6.7 1.2,-10.1 3.6,-10.1 0.1,0 0.5,0.2 1.2,0.6 0.7,0.4 1.6,0.8 2.8,1.2 1.1,0.4 2.3,0.6 3.4,0.6 1.3,0 2.5,-0.2 3.8,-0.7 -0.1,0.7 -0.1,1.3 -0.1,1.9 0,2.7 0.7,5.2 2.3,7.4 z"
   id="path43" /><path
   style="fill:#3465a4"
   d="m 68.2,66.2 c 0,2.3 -0.7,4.1 -2.1,5.4 -1.4,1.3 -3.2,2 -5.6,2 h -25 c -2.3,0 -4.2,-0.7 -5.6,-2 -1.4,-1.3 -2.1,-3.1 -2.1,-5.4 0,-1 0,-2 0.1,-3 0.1,-1 0.2,-2 0.4,-3.1 0.2,-1.1 0.5,-2.2 0.8,-3.1 0.3,-1 0.7,-1.9 1.2,-2.8 0.5,-0.9 1.1,-1.7 1.8,-2.3 0.7,-0.6 1.5,-1.2 2.4,-1.5 0.9,-0.3 2,-0.6 3.2,-0.6 0.2,0 0.6,0.2 1.2,0.6 0.6,0.4 1.3,0.9 2.1,1.4 0.8,0.5 1.8,1 3.1,1.4 1.3,0.4 2.6,0.6 3.9,0.6 1.3,0 2.6,-0.2 3.9,-0.6 1.3,-0.4 2.3,-0.9 3.1,-1.4 0.8,-0.5 1.5,-1 2.1,-1.4 0.6,-0.4 1,-0.6 1.2,-0.6 1.2,0 2.2,0.2 3.2,0.6 1,0.4 1.8,0.9 2.4,1.5 0.7,0.6 1.3,1.4 1.8,2.3 0.5,0.9 0.9,1.8 1.2,2.8 0.3,1 0.6,2 0.8,3.1 0.2,1.1 0.3,2.2 0.4,3.1 0,1 0.1,2 0.1,3 z"
   id="path41" /><path
   style="fill:#ce5c00"
   d="m 38.8,29.7 c 0,2 -0.7,3.8 -2.1,5.2 -1.4,1.4 -3.2,2.1 -5.2,2.1 -2,0 -3.8,-0.7 -5.2,-2.1 -1.4,-1.4 -2.1,-3.2 -2.1,-5.2 0,-2 0.7,-3.8 2.1,-5.2 1.4,-1.4 3.2,-2.1 5.2,-2.1 2,0 3.8,0.7 5.2,2.1 1.4,1.4 2.1,3.1 2.1,5.2 z"
   id="path39" /><path
   style="fill:#3465a4"
   d="m 59,40.7 c 0,3 -1.1,5.6 -3.2,7.8 -2.1,2.2 -4.8,3.2 -7.8,3.2 -3,0 -5.6,-1.1 -7.8,-3.2 C 38,46.4 37,43.7 37,40.7 c 0,-3 1.1,-5.6 3.2,-7.8 2.1,-2.2 4.7,-3.2 7.8,-3.2 3.1,0 5.6,1.1 7.8,3.2 2.2,2.1 3.2,4.7 3.2,7.8 z"
   id="path37" /><path
   style="fill:#ce5c00"
   d="m 75.5,47.1 c 0,1.5 -0.5,2.6 -1.6,3.4 -1.1,0.8 -2.4,1.2 -4,1.2 h -3.8 c -2,-2.3 -4.5,-3.6 -7.6,-3.7 1.5,-2.2 2.3,-4.7 2.3,-7.3 0,-0.6 0,-1.2 -0.1,-1.9 1.3,0.4 2.5,0.7 3.8,0.7 1.1,0 2.3,-0.2 3.4,-0.6 1.1,-0.4 2.1,-0.8 2.8,-1.2 0.7,-0.4 1.1,-0.6 1.2,-0.6 2.4,-0.1 3.6,3.3 3.6,10 z"
   id="path35" /><path
   style="fill:#ce5c00"
   d="m 71.8,29.7 c 0,2 -0.7,3.8 -2.1,5.2 -1.4,1.4 -3.2,2.1 -5.2,2.1 -2,0 -3.8,-0.7 -5.2,-2.1 -1.4,-1.4 -2.1,-3.2 -2.1,-5.2 0,-2 0.7,-3.8 2.1,-5.2 1.4,-1.4 3.2,-2.1 5.2,-2.1 2,0 3.8,0.7 5.2,2.1 1.4,1.4 2.1,3.1 2.1,5.2 z"
   id="XMLID_10_" />
</g>
<circle
   style="opacity:1;fill:#73d216;fill-opacity:1;stroke:#4e9a06;stroke-width:1.43354011;stroke-linecap:butt;stroke-miterlimit:4;stroke-dasharray:none;stroke-dashoffset:0;stroke-opacity:1"
   id="path832"
   cx="38.600697"
   cy="38.682999"
   r="8.4230604" /><g
   transform="matrix(0.33324484,0,0,0.33324484,31.427179,32.947833)"
   id="g6"
   style="stroke:#ce5c00;stroke-opacity:1;stroke-width:0.30007967;stroke-miterlimit:4;stroke-dasharray:none"><path
     inkscape:connector-curvature="0"
     style="fill:#f5ce85;stroke:#ce5c00;stroke-opacity:1;stroke-width:0.30007967;stroke-miterlimit:4;stroke-dasharray:none"
     d="m 17.519,38.475 c -0.591,0 -1.147,-0.23 -1.566,-0.648 L 2.148,24.022 c -0.863,-0.863 -0.863,-2.269 0,-3.132 L 20.54,2.524 C 21.2,1.864 22.079,1.5 23.013,1.5 H 35 c 1.93,0 3.5,1.57 3.5,3.5 v 12.008 c 0,0.937 -0.365,1.816 -1.028,2.478 l -18.387,18.34 c -0.419,0.419 -0.975,0.649 -1.566,0.649 z M 33.143,4.857 c -1.103,0 -2,0.897 -2,2 0,1.103 0.897,2 2,2 1.103,0 2,-0.897 2,-2 0,-1.103 -0.897,-2 -2,-2 z"
     id="path2" /><path
     inkscape:connector-curvature="0"
     style="fill:#ce5c00;stroke:#ce5c00;stroke-opacity:1;stroke-width:0.30007967;stroke-miterlimit:4;stroke-dasharray:none"
     d="m 35,2 c 1.654,0 3,1.346 3,3 v 12.008 c 0,0.803 -0.313,1.557 -0.881,2.124 L 18.731,37.473 c -0.324,0.324 -0.754,0.502 -1.212,0.502 -0.458,0 -0.888,-0.178 -1.212,-0.502 L 2.502,23.669 c -0.668,-0.668 -0.668,-1.756 0,-2.424 L 20.893,2.877 C 21.459,2.312 22.212,2 23.013,2 H 35 m -1.857,7.357 c 1.379,0 2.5,-1.122 2.5,-2.5 0,-1.378 -1.121,-2.5 -2.5,-2.5 -1.378,0 -2.5,1.122 -2.5,2.5 0,1.378 1.121,2.5 2.5,2.5 M 35,1 H 23.013 c -1.06,0 -2.077,0.421 -2.827,1.17 L 1.795,20.537 c -1.06,1.06 -1.06,2.779 0,3.839 L 15.599,38.18 c 0.53,0.53 1.225,0.795 1.919,0.795 0.695,0 1.389,-0.265 1.919,-0.795 L 37.824,19.84 C 38.577,19.09 39,18.071 39,17.008 V 5 C 39,2.791 37.209,1 35,1 Z m -1.857,7.357 c -0.828,0 -1.5,-0.672 -1.5,-1.5 0,-0.828 0.672,-1.5 1.5,-1.5 0.828,0 1.5,0.672 1.5,1.5 0,0.829 -0.672,1.5 -1.5,1.5 z"
     id="path4" /></g></svg>