<?xml version="1.0" encoding="UTF-8" standalone="no"?>
<!-- Generator: Adobe Illustrator 19.2.1, SVG Export Plug-In . SVG Version: 6.00 Build 0)  -->

<svg
   xmlns:dc="http://purl.org/dc/elements/1.1/"
   xmlns:cc="http://creativecommons.org/ns#"
   xmlns:rdf="http://www.w3.org/1999/02/22-rdf-syntax-ns#"
   xmlns:svg="http://www.w3.org/2000/svg"
   xmlns="http://www.w3.org/2000/svg"
   xmlns:sodipodi="http://sodipodi.sourceforge.net/DTD/sodipodi-0.dtd"
   xmlns:inkscape="http://www.inkscape.org/namespaces/inkscape"
   version="1.1"
   id="Layer_1"
   x="0px"
   y="0px"
   viewBox="0 0 40 40"
   style="enable-background:new 0 0 40 40;"
   xml:space="preserve"
   sodipodi:docname="tag.svg"
   inkscape:version="0.92.3 (2405546, 2018-03-11)"
   inkscape:export-filename="/home/luca/Dropbox/MATLAB scripts/Clarinet/Clarinet_resources/tag.png"
   inkscape:export-xdpi="115.2"
   inkscape:export-ydpi="115.2"><metadata
   id="metadata25"><rdf:RDF><cc:Work
       rdf:about=""><dc:format>image/svg+xml</dc:format><dc:type
         rdf:resource="http://purl.org/dc/dcmitype/StillImage" /><dc:title /></cc:Work></rdf:RDF></metadata><defs
   id="defs23" /><sodipodi:namedview
   pagecolor="#ffffff"
   bordercolor="#666666"
   borderopacity="1"
   objecttolerance="10"
   gridtolerance="10"
   guidetolerance="10"
   inkscape:pageopacity="0"
   inkscape:pageshadow="2"
   inkscape:window-width="1853"
   inkscape:window-height="1016"
   id="namedview21"
   showgrid="false"
   inkscape:zoom="5.9"
   inkscape:cx="-14.661017"
   inkscape:cy="20"
   inkscape:window-x="67"
   inkscape:window-y="27"
   inkscape:window-maximized="1"
   inkscape:current-layer="Layer_1" />
<g
   id="g6">
	<path
   style="fill:#F5CE85;"
   d="M17.519,38.475c-0.591,0-1.147-0.23-1.566-0.648L2.148,24.022c-0.863-0.863-0.863-2.269,0-3.132   L20.54,2.524C21.2,1.864,22.079,1.5,23.013,1.5H35c1.93,0,3.5,1.57,3.5,3.5v12.008c0,0.937-0.365,1.816-1.028,2.478l-18.387,18.34   C18.666,38.245,18.11,38.475,17.519,38.475z M33.143,4.857c-1.103,0-2,0.897-2,2s0.897,2,2,2s2-0.897,2-2   S34.246,4.857,33.143,4.857z"
   id="path2" />
	<path
   style="fill:#967A44;"
   d="M35,2c1.654,0,3,1.346,3,3v12.008c0,0.803-0.313,1.557-0.881,2.124L18.731,37.473   c-0.324,0.324-0.754,0.502-1.212,0.502c-0.458,0-0.888-0.178-1.212-0.502L2.502,23.669c-0.668-0.668-0.668-1.756,0-2.424   L20.893,2.877C21.459,2.312,22.212,2,23.013,2H35 M33.143,9.357c1.379,0,2.5-1.122,2.5-2.5s-1.121-2.5-2.5-2.5   c-1.378,0-2.5,1.122-2.5,2.5S31.764,9.357,33.143,9.357 M35,1H23.013c-1.06,0-2.077,0.421-2.827,1.17L1.795,20.537   c-1.06,1.06-1.06,2.779,0,3.839L15.599,38.18c0.53,0.53,1.225,0.795,1.919,0.795c0.695,0,1.389-0.265,1.919-0.795l18.387-18.34   C38.577,19.09,39,18.071,39,17.008V5C39,2.791,37.209,1,35,1L35,1z M33.143,8.357c-0.828,0-1.5-0.672-1.5-1.5   c0-0.828,0.672-1.5,1.5-1.5c0.828,0,1.5,0.672,1.5,1.5C34.643,7.686,33.971,8.357,33.143,8.357L33.143,8.357z"
   id="path4" />
</g>



</svg>